<?xml version="1.0" encoding="UTF-8" standalone="no"?>
<!DOCTYPE svg PUBLIC "-//W3C//DTD SVG 1.0//EN" "http://www.w3.org/TR/2001/PR-SVG-20010719/DTD/svg10.dtd">
<svg width="36cm" height="40cm" viewBox="-181 19 702 792" xmlns="http://www.w3.org/2000/svg" xmlns:xlink="http://www.w3.org/1999/xlink">
  <g id="Фон">
    <ellipse style="fill: #000000; fill-opacity: 1; stroke: none" cx="159.95" cy="30" rx="10" ry="10"/>
    <g>
      <ellipse style="fill: #ffffff; fill-opacity: 1; stroke-opacity: 1; stroke-width: 2; stroke: #000000" cx="159.95" cy="795" rx="15" ry="15"/>
      <ellipse style="fill: #000000; fill-opacity: 1; stroke: none" cx="159.95" cy="795" rx="10" ry="10"/>
    </g>
    <g>
      <rect style="fill: #ffffff; fill-opacity: 1; stroke-opacity: 1; stroke-width: 2; stroke: #000000" x="77.125" y="80" width="165.65" height="36" rx="10" ry="10"/>
      <text font-size="12.7998" style="fill: #000000; fill-opacity: 1; stroke: none;text-anchor:middle;font-family:sans-serif;font-style:normal;font-weight:normal" x="159.95" y="101.9">
        <tspan x="159.95" y="101.9">Переход на страницу</tspan>
      </text>
    </g>
    <g>
      <rect style="fill: #ffffff; fill-opacity: 1; stroke-opacity: 1; stroke-width: 2; stroke: #000000" x="83.95" y="160" width="152" height="36" rx="10" ry="10"/>
      <text font-size="12.7998" style="fill: #000000; fill-opacity: 1; stroke: none;text-anchor:middle;font-family:sans-serif;font-style:normal;font-weight:normal" x="159.95" y="181.9">
        <tspan x="159.95" y="181.9">Заполнение формы</tspan>
      </text>
    </g>
    <g>
      <rect style="fill: #ffffff; fill-opacity: 1; stroke-opacity: 1; stroke-width: 2; stroke: #000000" x="60" y="320" width="199.9" height="36" rx="10" ry="10"/>
      <text font-size="12.7998" style="fill: #000000; fill-opacity: 1; stroke: none;text-anchor:middle;font-family:sans-serif;font-style:normal;font-weight:normal" x="159.95" y="341.9">
        <tspan x="159.95" y="341.9">Ожидание ответа сервера</tspan>
      </text>
    </g>
    <g>
      <rect style="fill: #ffffff; fill-opacity: 1; stroke-opacity: 1; stroke-width: 2; stroke: #000000" x="117.425" y="240" width="85.05" height="36" rx="10" ry="10"/>
      <text font-size="12.7998" style="fill: #000000; fill-opacity: 1; stroke: none;text-anchor:middle;font-family:sans-serif;font-style:normal;font-weight:normal" x="159.95" y="261.9">
        <tspan x="159.95" y="261.9">Отправка</tspan>
      </text>
    </g>
    <polygon style="fill: #ffffff; fill-opacity: 1; stroke-opacity: 1; stroke-width: 2; stroke: #000000" fill-rule="evenodd" points="139.95,400 159.95,380 179.95,400 159.95,420 "/>
    <text font-size="12.7998" style="fill: #000000; fill-opacity: 1; stroke: none;text-anchor:start;font-family:sans-serif;font-style:normal;font-weight:normal" x="234.7" y="443.95">
      <tspan x="234.7" y="443.95">Сообщение: не верно заполнены поля</tspan>
    </text>
    <g>
      <rect style="fill: #ffffff; fill-opacity: 1; stroke-opacity: 1; stroke-width: 2; stroke: #000000" x="220" y="480" width="166.9" height="52" rx="10" ry="10"/>
      <text font-size="12.7998" style="fill: #000000; fill-opacity: 1; stroke: none;text-anchor:middle;font-family:sans-serif;font-style:normal;font-weight:normal" x="303.45" y="501.9">
        <tspan x="303.45" y="501.9">Отмеченые поля</tspan>
        <tspan x="303.45" y="517.9">заполнить правильно</tspan>
      </text>
    </g>
    <g>
      <polyline style="fill: none; stroke-opacity: 1; stroke-width: 2; stroke: #000000" points="159.95,41.0054 159.95,59.998 159.95,59.998 159.95,74.5186 "/>
      <polyline style="fill: none; stroke-opacity: 1; stroke-width: 2; stroke: #000000" points="154.95,66.7547 159.95,76.7547 164.95,66.7547 "/>
    </g>
    <g>
      <polyline style="fill: none; stroke-opacity: 1; stroke-width: 2; stroke: #000000" points="159.95,117.009 159.95,138 159.95,138 159.95,154.519 "/>
      <polyline style="fill: none; stroke-opacity: 1; stroke-width: 2; stroke: #000000" points="154.95,146.755 159.95,156.755 164.95,146.755 "/>
    </g>
    <g>
      <polyline style="fill: none; stroke-opacity: 1; stroke-width: 2; stroke: #000000" points="159.95,197.009 159.95,218 159.95,218 159.95,234.519 "/>
      <polyline style="fill: none; stroke-opacity: 1; stroke-width: 2; stroke: #000000" points="154.95,226.755 159.95,236.755 164.95,226.755 "/>
    </g>
    <g>
      <polyline style="fill: none; stroke-opacity: 1; stroke-width: 2; stroke: #000000" points="159.95,277.009 159.95,298 159.95,298 159.95,314.519 "/>
      <polyline style="fill: none; stroke-opacity: 1; stroke-width: 2; stroke: #000000" points="154.95,306.755 159.95,316.755 164.95,306.755 "/>
    </g>
    <g>
      <polyline style="fill: none; stroke-opacity: 1; stroke-width: 2; stroke: #000000" points="159.95,357.009 159.95,368.505 159.95,368.505 159.95,375.528 "/>
      <polyline style="fill: none; stroke-opacity: 1; stroke-width: 2; stroke: #000000" points="154.95,367.764 159.95,377.764 164.95,367.764 "/>
    </g>
    <g>
      <polyline style="fill: none; stroke-opacity: 1; stroke-width: 2; stroke: #000000" points="159.95,420 159.95,450 303.45,450 303.45,475.528 "/>
      <polyline style="fill: none; stroke-opacity: 1; stroke-width: 2; stroke: #000000" points="298.45,467.764 303.45,477.764 308.45,467.764 "/>
    </g>
    <g>
      <polyline style="fill: none; stroke-opacity: 1; stroke-width: 2; stroke: #000000" points="303.45,532 303.45,560 520,560 520,218 164.422,218 "/>
      <polyline style="fill: none; stroke-opacity: 1; stroke-width: 2; stroke: #000000" points="172.186,213 162.186,218 172.186,223 "/>
    </g>
    <g>
      <rect style="fill: #ffffff; fill-opacity: 1; stroke-opacity: 1; stroke-width: 2; stroke: #000000" x="220" y="640" width="154.5" height="36" rx="10" ry="10"/>
      <text font-size="12.7998" style="fill: #000000; fill-opacity: 1; stroke: none;text-anchor:middle;font-family:sans-serif;font-style:normal;font-weight:normal" x="297.25" y="661.9">
        <tspan x="297.25" y="661.9">Попробовать позже</tspan>
      </text>
    </g>
    <g>
      <rect style="fill: #ffffff; fill-opacity: 1; stroke-opacity: 1; stroke-width: 2; stroke: #000000" x="111.25" y="700" width="97.4" height="36" rx="10" ry="10"/>
      <text font-size="12.7998" style="fill: #000000; fill-opacity: 1; stroke: none;text-anchor:middle;font-family:sans-serif;font-style:normal;font-weight:normal" x="159.95" y="721.9">
        <tspan x="159.95" y="721.9">Радоваться</tspan>
      </text>
    </g>
    <g>
      <polyline style="fill: none; stroke-opacity: 1; stroke-width: 2; stroke: #000000" points="159.95,420 159.95,620 159.95,620 159.95,695.528 "/>
      <polyline style="fill: none; stroke-opacity: 1; stroke-width: 2; stroke: #000000" points="154.95,687.764 159.95,697.764 164.95,687.764 "/>
    </g>
    <g>
      <polyline style="fill: none; stroke-opacity: 1; stroke-width: 2; stroke: #000000" points="159.95,420 159.95,620 297.25,620 297.25,634.519 "/>
      <polyline style="fill: none; stroke-opacity: 1; stroke-width: 2; stroke: #000000" points="292.25,626.755 297.25,636.755 302.25,626.755 "/>
    </g>
    <text font-size="12.7998" style="fill: #000000; fill-opacity: 1; stroke: none;text-anchor:start;font-family:sans-serif;font-style:normal;font-weight:normal" x="231.6" y="597.95">
      <tspan x="231.6" y="597.95">Сообщение: ошибка сервера,</tspan>
      <tspan x="231.6" y="613.95">попробуйте позднее</tspan>
    </text>
    <g>
      <polyline style="fill: none; stroke-opacity: 1; stroke-width: 2; stroke: #000000" points="159.95,737.009 159.95,758.001 159.95,758.001 159.95,774.52 "/>
      <polyline style="fill: none; stroke-opacity: 1; stroke-width: 2; stroke: #000000" points="154.95,766.756 159.95,776.756 164.95,766.756 "/>
    </g>
    <g>
      <polyline style="fill: none; stroke-opacity: 1; stroke-width: 2; stroke: #000000" points="297.25,676.988 297.25,760 159.95,760 159.95,775.528 "/>
      <polyline style="fill: none; stroke-opacity: 1; stroke-width: 2; stroke: #000000" points="154.95,767.764 159.95,777.764 164.95,767.764 "/>
    </g>
    <text font-size="12.7998" style="fill: #000000; fill-opacity: 1; stroke: none;text-anchor:end;font-family:sans-serif;font-style:normal;font-weight:normal" x="156.95" y="653.95">
      <tspan x="156.95" y="653.95">Сообщение: успешно</tspan>
    </text>
    <g>
      <polygon style="fill: #ffffff; fill-opacity: 1; stroke-opacity: 1; stroke-width: 2; stroke: #000000" fill-rule="evenodd" points="-180,20 -4.6,20 7.4,32 7.4,134 -180,134 "/>
      <polyline style="fill: none; stroke-opacity: 1; stroke-width: 1; stroke: #000000" points="-4.6,20 -4.6,32 7.4,32 "/>
      <text font-size="12.7998" style="fill: #000000; fill-opacity: 1; stroke: none;text-anchor:start;font-family:monospace;font-style:normal;font-weight:normal" x="-173" y="44.9">
        <tspan x="-173" y="44.9">Субъект моделирования:</tspan>
        <tspan xml:space="preserve" x="-173" y="60.9">  Создание/изменение</tspan>
        <tspan xml:space="preserve" x="-173" y="76.9">  информации</tspan>
        <tspan x="-173" y="92.9">Точка зрения:</tspan>
        <tspan xml:space="preserve" x="-173" y="108.9">  авторизованный</tspan>
        <tspan xml:space="preserve" x="-173" y="124.9">  пользователь</tspan>
      </text>
    </g>
  </g>
</svg>
