<?xml version="1.0" encoding="UTF-8" standalone="no"?>
<!DOCTYPE svg PUBLIC "-//W3C//DTD SVG 1.0//EN" "http://www.w3.org/TR/2001/PR-SVG-20010719/DTD/svg10.dtd">
<svg width="28cm" height="23cm" viewBox="-52 -115 549 456" xmlns="http://www.w3.org/2000/svg" xmlns:xlink="http://www.w3.org/1999/xlink">
  <g>
    <line style="fill: none; fill-opacity:0; stroke-width: 1; stroke-dasharray: 8; stroke: #000000" x1="271.05" y1="-4" x2="271.05" y2="60"/>
    <line style="fill: none; fill-opacity:0; stroke-width: 1; stroke-dasharray: 8; stroke: #000000" x1="271.05" y1="100" x2="271.05" y2="186"/>
    <rect style="fill: #ffffff" x="264.05" y="60" width="14" height="40"/>
    <rect style="fill: none; fill-opacity:0; stroke-width: 2; stroke: #000000" x="264.05" y="60" width="14" height="40"/>
  </g>
  <g>
    <line style="fill: none; fill-opacity:0; stroke-width: 1; stroke-dasharray: 8; stroke: #000000" x1="40" y1="-6" x2="40" y2="20"/>
    <line style="fill: none; fill-opacity:0; stroke-width: 1; stroke-dasharray: 8; stroke: #000000" x1="40" y1="60" x2="40" y2="160"/>
    <rect style="fill: #ffffff" x="33" y="20" width="14" height="40"/>
    <rect style="fill: none; fill-opacity:0; stroke-width: 2; stroke: #000000" x="33" y="20" width="14" height="40"/>
  </g>
  <g>
    <rect style="fill: #ffffff" x="240" y="-40" width="62.1" height="36"/>
    <rect style="fill: none; fill-opacity:0; stroke-width: 2; stroke: #000000" x="240" y="-40" width="62.1" height="36"/>
    <text font-size="12.7998" style="fill: #000000;text-anchor:middle;font-family:sans-serif;font-style:normal;font-weight:normal" x="271.05" y="-17.2">
      <tspan x="271.05" y="-17.2">Сервер</tspan>
    </text>
    <line style="fill: none; fill-opacity:0; stroke-width: 1; stroke: #000000" x1="250" y1="-14.55" x2="292.1" y2="-14.55"/>
  </g>
  <g>
    <ellipse style="fill: #ffffff" cx="40" cy="-96" rx="6" ry="6"/>
    <ellipse style="fill: none; fill-opacity:0; stroke-width: 2; stroke: #000000" cx="40" cy="-96" rx="6" ry="6"/>
    <line style="fill: none; fill-opacity:0; stroke-width: 2; stroke: #000000" x1="16" y1="-84" x2="64" y2="-84"/>
    <line style="fill: none; fill-opacity:0; stroke-width: 2; stroke: #000000" x1="40" y1="-90" x2="40" y2="-60"/>
    <line style="fill: none; fill-opacity:0; stroke-width: 2; stroke: #000000" x1="40" y1="-60" x2="16" y2="-34"/>
    <line style="fill: none; fill-opacity:0; stroke-width: 2; stroke: #000000" x1="40" y1="-60" x2="64" y2="-34"/>
    <text font-size="12.7998" style="fill: #000000;text-anchor:middle;font-family:sans-serif;font-style:normal;font-weight:normal" x="40" y="-9.2">
      <tspan x="40" y="-9.2">Авторизованный пользователь</tspan>
    </text>
  </g>
  <g>
    <rect style="fill: #ffffff" x="460" y="-40" width="36.3" height="36"/>
    <rect style="fill: none; fill-opacity:0; stroke-width: 2; stroke: #000000" x="460" y="-40" width="36.3" height="36"/>
    <text font-size="12.7998" style="fill: #000000;text-anchor:middle;font-family:sans-serif;font-style:normal;font-weight:normal" x="478.15" y="-17.2">
      <tspan x="478.15" y="-17.2">БД</tspan>
    </text>
    <line style="fill: none; fill-opacity:0; stroke-width: 1; stroke: #000000" x1="470" y1="-14.55" x2="486.3" y2="-14.55"/>
  </g>
  <g>
    <line style="fill: none; fill-opacity:0; stroke-width: 1; stroke-dasharray: 8; stroke: #000000" x1="271.05" y1="100" x2="271.05" y2="140"/>
    <line style="fill: none; fill-opacity:0; stroke-width: 1; stroke-dasharray: 8; stroke: #000000" x1="271.05" y1="180" x2="271.05" y2="340"/>
    <rect style="fill: #ffffff" x="264.05" y="140" width="14" height="40"/>
    <rect style="fill: none; fill-opacity:0; stroke-width: 2; stroke: #000000" x="264.05" y="140" width="14" height="40"/>
  </g>
  <g>
    <line style="fill: none; fill-opacity:0; stroke-width: 2; stroke: #000000" x1="247.05" y1="140" x2="47" y2="140"/>
    <polygon style="fill: #000000" points="247.05,145 263.05,140 247.05,135 "/>
    <polygon style="fill: none; fill-opacity:0; stroke-width: 2; stroke: #000000" points="247.05,145 263.05,140 247.05,135 "/>
    <text font-size="12.7998" style="fill: #000000;text-anchor:middle;font-family:sans-serif;font-style:normal;font-weight:normal" x="160" y="130">Форма</text>
  </g>
  <g>
    <line style="fill: none; fill-opacity:0; stroke-width: 1; stroke-dasharray: 8; stroke: #000000" x1="40" y1="60" x2="40" y2="100"/>
    <line style="fill: none; fill-opacity:0; stroke-width: 1; stroke-dasharray: 8; stroke: #000000" x1="40" y1="140" x2="40" y2="340"/>
    <rect style="fill: #ffffff" x="33" y="100" width="14" height="40"/>
    <rect style="fill: none; fill-opacity:0; stroke-width: 2; stroke: #000000" x="33" y="100" width="14" height="40"/>
  </g>
  <g>
    <line style="fill: none; fill-opacity:0; stroke-width: 1; stroke-dasharray: 8; stroke: #000000" x1="478.15" y1="-4" x2="478.15" y2="180"/>
    <line style="fill: none; fill-opacity:0; stroke-width: 1; stroke-dasharray: 8; stroke: #000000" x1="478.15" y1="220" x2="478.15" y2="340"/>
    <rect style="fill: #ffffff" x="471.15" y="180" width="14" height="40"/>
    <rect style="fill: none; fill-opacity:0; stroke-width: 2; stroke: #000000" x="471.15" y="180" width="14" height="40"/>
  </g>
  <g>
    <line style="fill: none; fill-opacity:0; stroke-width: 2; stroke: #000000" x1="454.15" y1="180" x2="278.05" y2="180"/>
    <polygon style="fill: #000000" points="454.15,185 470.15,180 454.15,175 "/>
    <polygon style="fill: none; fill-opacity:0; stroke-width: 2; stroke: #000000" points="454.15,185 470.15,180 454.15,175 "/>
    <text font-size="12.7998" style="fill: #000000;text-anchor:middle;font-family:sans-serif;font-style:normal;font-weight:normal" x="380" y="170">Запрос</text>
  </g>
  <g>
    <line style="fill: none; fill-opacity:0; stroke-width: 1; stroke-dasharray: 8; stroke: #000000" x1="271.05" y1="180" x2="271.05" y2="220"/>
    <line style="fill: none; fill-opacity:0; stroke-width: 1; stroke-dasharray: 8; stroke: #000000" x1="271.05" y1="260" x2="271.05" y2="260"/>
    <rect style="fill: #ffffff" x="264.05" y="220" width="14" height="40"/>
    <rect style="fill: none; fill-opacity:0; stroke-width: 2; stroke: #000000" x="264.05" y="220" width="14" height="40"/>
  </g>
  <g>
    <line style="fill: none; fill-opacity:0; stroke-width: 2; stroke: #000000" x1="295.05" y1="220" x2="478.15" y2="220"/>
    <polygon style="fill: #000000" points="295.05,215 279.05,220 295.05,225 "/>
    <polygon style="fill: none; fill-opacity:0; stroke-width: 2; stroke: #000000" points="295.05,215 279.05,220 295.05,225 "/>
    <text font-size="12.7998" style="fill: #000000;text-anchor:middle;font-family:sans-serif;font-style:normal;font-weight:normal" x="380" y="210">Статус выполнения запроса</text>
  </g>
  <g>
    <line style="fill: none; fill-opacity:0; stroke-width: 2; stroke: #000000" x1="64" y1="260" x2="264.05" y2="260"/>
    <polygon style="fill: #000000" points="64,255 48,260 64,265 "/>
    <polygon style="fill: none; fill-opacity:0; stroke-width: 2; stroke: #000000" points="64,255 48,260 64,265 "/>
    <text font-size="12.7998" style="fill: #000000;text-anchor:middle;font-family:sans-serif;font-style:normal;font-weight:normal" x="160" y="250">Статус выполнения операции</text>
  </g>
  <g>
    <line style="fill: none; fill-opacity:0; stroke-width: 1; stroke-dasharray: 8; stroke: #000000" x1="40" y1="140" x2="40" y2="260"/>
    <line style="fill: none; fill-opacity:0; stroke-width: 1; stroke-dasharray: 8; stroke: #000000" x1="40" y1="300" x2="40" y2="300"/>
    <rect style="fill: #ffffff" x="33" y="260" width="14" height="40"/>
    <rect style="fill: none; fill-opacity:0; stroke-width: 2; stroke: #000000" x="33" y="260" width="14" height="40"/>
  </g>
  <g>
    <line style="fill: none; fill-opacity:0; stroke-width: 2; stroke: #000000" x1="247.05" y1="60" x2="47" y2="60"/>
    <polygon style="fill: #000000" points="247.05,65 263.05,60 247.05,55 "/>
    <polygon style="fill: none; fill-opacity:0; stroke-width: 2; stroke: #000000" points="247.05,65 263.05,60 247.05,55 "/>
    <text font-size="12.7998" style="fill: #000000;text-anchor:middle;font-family:sans-serif;font-style:normal;font-weight:normal" x="160" y="50">Get-запрос</text>
  </g>
  <g>
    <line style="fill: none; fill-opacity:0; stroke-width: 2; stroke: #000000" x1="64" y1="100" x2="264.05" y2="100"/>
    <polygon style="fill: #000000" points="64,95 48,100 64,105 "/>
    <polygon style="fill: none; fill-opacity:0; stroke-width: 2; stroke: #000000" points="64,95 48,100 64,105 "/>
    <text font-size="12.7998" style="fill: #000000;text-anchor:middle;font-family:sans-serif;font-style:normal;font-weight:normal" x="160" y="90">html Страница</text>
  </g>
</svg>
