<?xml version="1.0" encoding="UTF-8" standalone="no"?>
<!DOCTYPE svg PUBLIC "-//W3C//DTD SVG 1.0//EN" "http://www.w3.org/TR/2001/PR-SVG-20010719/DTD/svg10.dtd">
<svg width="23cm" height="22cm" viewBox="-1 19 456 432" xmlns="http://www.w3.org/2000/svg" xmlns:xlink="http://www.w3.org/1999/xlink">
  <ellipse style="fill: #000000" cx="342.463" cy="50" rx="10" ry="10"/>
  <g>
    <ellipse style="fill: #ffffff" cx="342.463" cy="435" rx="15" ry="15"/>
    <ellipse style="fill: none; fill-opacity:0; stroke-width: 2; stroke: #000000" cx="342.463" cy="435" rx="15" ry="15"/>
    <ellipse style="fill: #000000" cx="342.463" cy="435" rx="10" ry="10"/>
  </g>
  <g>
    <polygon style="fill: #ffffff" points="0,20 175.4,20 187.4,32 187.4,102 0,102 "/>
    <polygon style="fill: none; fill-opacity:0; stroke-width: 2; stroke: #000000" points="0,20 175.4,20 187.4,32 187.4,102 0,102 "/>
    <polyline style="fill: none; fill-opacity:0; stroke-width: 1; stroke: #000000" points="175.4,20 175.4,32 187.4,32 "/>
    <text font-size="12.8" style="fill: #000000;text-anchor:start;font-family:monospace;font-style:normal;font-weight:normal" x="7" y="43.65">
      <tspan x="7" y="43.65">Субъект моделирования:</tspan>
      <tspan x="7" y="59.65">  пользователь</tspan>
      <tspan x="7" y="75.65">Точка зрения:</tspan>
      <tspan x="7" y="91.65">  администратор</tspan>
    </text>
  </g>
  <g>
    <rect style="fill: #ffffff" x="243.812" y="120" width="197.3" height="52" rx="10" ry="10"/>
    <rect style="fill: none; fill-opacity:0; stroke-width: 2; stroke: #000000" x="243.812" y="120" width="197.3" height="52" rx="10" ry="10"/>
    <text font-size="12.7998" style="fill: #000000;text-anchor:middle;font-family:sans-serif;font-style:normal;font-weight:normal" x="342.462" y="142.8">
      <tspan x="342.462" y="142.8">Имеется в реальности,</tspan>
      <tspan x="342.462" y="158.8">но не в электронном журнале</tspan>
    </text>
  </g>
  <g>
    <polyline style="fill: none; fill-opacity:0; stroke-width: 2; stroke: #000000" points="342.463,61.0054 342.463,71.0054 342.462,108.993 342.462,114.521 "/>
    <polyline style="fill: none; fill-opacity:0; stroke-width: 2; stroke: #000000" points="337.462,106.757 342.462,116.757 347.462,106.757 "/>
  </g>
  <g>
    <rect style="fill: #ffffff" x="282.113" y="240" width="120.7" height="36" rx="10" ry="10"/>
    <rect style="fill: none; fill-opacity:0; stroke-width: 2; stroke: #000000" x="282.113" y="240" width="120.7" height="36" rx="10" ry="10"/>
    <text font-size="12.7998" style="fill: #000000;text-anchor:middle;font-family:sans-serif;font-style:normal;font-weight:normal" x="342.463" y="262.8">
      <tspan x="342.463" y="262.8">Зарегистрирован</tspan>
    </text>
  </g>
  <g>
    <rect style="fill: #ffffff" x="302.462" y="340" width="80" height="36" rx="10" ry="10"/>
    <rect style="fill: none; fill-opacity:0; stroke-width: 2; stroke: #000000" x="302.462" y="340" width="80" height="36" rx="10" ry="10"/>
    <text font-size="12.7998" style="fill: #000000;text-anchor:middle;font-family:sans-serif;font-style:normal;font-weight:normal" x="342.462" y="362.8">
      <tspan x="342.462" y="362.8">Удалён</tspan>
    </text>
  </g>
  <g>
    <polyline style="fill: none; fill-opacity:0; stroke-width: 2; stroke: #000000" points="342.462,172.982 342.462,205.999 342.463,205.999 342.463,234.522 "/>
    <polyline style="fill: none; fill-opacity:0; stroke-width: 2; stroke: #000000" points="337.463,226.759 342.463,236.759 347.463,226.759 "/>
    <text font-size="12.7998" style="fill: #000000;text-anchor:middle;font-family:sans-serif;font-style:normal;font-weight:normal" x="403.813" y="200">Регистрирование</text>
  </g>
  <g>
    <polyline style="fill: none; fill-opacity:0; stroke-width: 2; stroke: #000000" points="342.463,276.999 342.463,318 342.462,318 342.462,334.534 "/>
    <polyline style="fill: none; fill-opacity:0; stroke-width: 2; stroke: #000000" points="337.462,326.77 342.462,336.77 347.462,326.77 "/>
    <text font-size="12.7998" style="fill: #000000;text-anchor:middle;font-family:sans-serif;font-style:normal;font-weight:normal" x="387.463" y="310">Удаление</text>
  </g>
  <g>
    <polyline style="fill: none; fill-opacity:0; stroke-width: 2; stroke: #000000" points="342.462,377.009 342.462,387.009 342.463,408.992 342.463,414.52 "/>
    <polyline style="fill: none; fill-opacity:0; stroke-width: 2; stroke: #000000" points="337.463,406.756 342.463,416.756 347.463,406.756 "/>
  </g>
</svg>
